/* XPM */
static char *c02108a47c08489caae7b55b78a9e756nRq3LG8ffMNgiFIY[] = {
/* columns rows colors chars-per-pixel */
"64 64 9 1 ",
"  c black",
". c #464646",
"X c #5F7649",
"o c #ED1C24",
"O c #628741",
"+ c #60844A",
"@ c #86AA52",
"# c #546D8E",
"$ c white",
/* pixels */
"................................................................",
"................................................................",
"..+++++@@X@OOO.OOX+++++@@X@OOO.OOX+++++@@X@OOO+++++@@X@OOO.OOX..",
"..@@+XX++X..O.O@XX@@+XX++X..O.O@XX@@+XX++X..O.@@+XX++X..O.O@XX..",
"..+@@+..+@XXX+++@X+@@+..+@XXX+++@X+@@+..+@XXX++@@+..+@XXX+++@X..",
"..XXX+++@@@@XX+OOOXXX+++@@@@XX+OOOXXX+++@@@@XXXXX+++@@@@XX+OOO..",
"...X@@+++@..@@@XOO.X@@+++@..@@@XOO.X@@+++@..@@.X@@+++@..@@@XOO..",
"..+.@@@++.++.++X@@+.@@@++.++.++X@@+.@@@++.++.++.@@@++.++.++X@@..",
"..+OO@.+O@O.+@@@@@+OO@.+O@O.+@@@@@+OO@.+O@O.+@+OO@.+O@O.+@@@@@..",
"..+@@.O.O+@@+@+@@@+@@.O.O+@@+@+@@@+@@.O.O+@@+@+@@.O.O+@@+@+@@@..",
"..@+++X@OOO@@XXXX@@+++X@OOO@@XXXX@@+++X@OOO@@X@+++X@OOO@@XXXX@..",
"..+@@@@XOOOO@X.@@@+@@@@XOOOO@X.@  +@@@@XOOOO@X+@@@@XOOOO@X.@@@..",
"..X@X@X...OO@.@+X@X@X@X.   O@.@ oo @   ...OO@.X@X@X...OO@.@+X@..",
"..XXOO.XOO.XXOX..OXXOO. $$$         $$$ OO.XXOXXOO.XOO.XXOX..O..",
"..XOO+X.XXOXX@+X+.XOO+X $$$$$$$$$$$$$$$ XXOXX@XOO+X.XXOXX@+X+...",
"...@+@@@XXXX+++XXO.@+@@ $$$$$$$$$$$$$$$ XXXX++.@+@@@XXXX+++XXO..",
"..X+XX++@+@XXXX+XXX+XX++ $$$$$$$$$$$$$ o +@XXXX+XX++@+@XXXX+XX..",
"..+++++@@X@OOO.OOX+++++ $$$$$$$$$$$$$$ o X@OOO+++++@@X@OOO.OOX..",
"..@@+XX++X..O.O@XX@@+XX $$$$$$$$$$$$$$  +X..O.@@+XX++X..O.O@XX..",
"..+@@+..+@XXX+++@X+@@+. $$$$$$$$$$$$$$ .+@XXX++@@+..+@XXX+++@X..",
"..XXX+++@@@@XX+OOOXXX+ $$$$$$$$$$$$$$$$ @@@@XXXXX+++@@@@XX+OOO..",
"...X@@+++@..@@@XOO.X    $$$$$$$$$$$$$$    ..@@.X@@+++@..@@@XOO..",
"..+.@@@++.++.++X@@+.@@@  $$$$$$$$$$$$  ++.++.++.@@@++.++.++X@@..",
"..+OO@.+O@O.+@@@@@+OO   $$$$$$$$$$$$$$   @O.+@+OO@.+O@O.+@@@@@..",
"..+@@.O.O+@@+@+@@@+@@.O. $$$$$$$$$$$$ O.O+@@+@+@@.O.O+@@+@+@@@..",
"..@+++X@OOO@@XXXX@@+++X@O  $$$$$$$$  +X@OOO@@X@+++X@OOO@@XXXX@..",
"..+@@@@XOOOO@X.@@@+@@@@X o          o @XOOOO@X+@@@@XOOOO@X.@@@..",
"..X@X@X...OO@.@+X@X@X@X. o ## oo ## o X...OO@.X@X@X...OO@.@+X@..",
"..XXOO.XOO.XXOX..OXXOO. oo ###  ### oo XOO.XXOXXOO.XOO.XXOX..O..",
"..XOO+X.XXOXX@+X+.XOO+    ##########    XXOXX@XOO+X.XXOXX@+X+...",
"...@+@@@XXXX+++XXO.@+ $$$ ########## $$$ XXX++.@+@@@XXXX+++XXO..",
"..X+XX++@+@XXXX+XXX+X $$ ############ $$ +@XXXX+XX++@+@XXXX+XX..",
"..+++++@@X@OOO.OOX++++   ############   @X@OOO+++++@@X@OOO.OOX..",
"..@@+XX++X..O.O@XX@@+XX+ ############ X++X..O.@@+XX++X..O.O@XX..",
"..+@@+..+@XXX+++@X+@@+..+ ########## +..+@XXX++@@+..+@XXX+++@X..",
"..XXX+++@@@@XX+OOOXXX+++@@ ###  ### X+++@@@@XXXXX+++@@@@XX+OOO..",
"...X@@+++@..@@@XOO.X@@+++@          @@+++@..@@.X@@+++@..@@@XOO..",
"..+.@@@++.++.++X@@+.@@@++ $$$$  $$$$ @@++.++.++.@@@++.++.++X@@..",
"..+OO@.+O@O.+@@@@@+OO@.+O $$$$  $$$$ @.+O@O.+@+OO@.+O@O.+@@@@@..",
"..+@@.O.O+@@+@+@@@+@@.O.O+          @.O.O+@@+@+@@.O.O+@@+@+@@@..",
"..@+++X@OOO@@XXXX@@+++X@OOO@@XXXX@@+++X@OOO@@X@+++X@OOO@@XXXX@..",
"..+@@@@XOOOO@X.@@@+@@@@XOOOO@X.@@@+@@@@XOOOO@X+@@@@XOOOO@X.@@@..",
"..X@X@X...OO@.@+X@X@X@X...OO@.@+X@X@X@X...OO@.X@X@X...OO@.@+X@..",
"..XXOO.XOO.XXOX..OXXOO.XOO.XXOX..OXXOO.XOO.XXOXXOO.XOO.XXOX..O..",
"..XOO+X.XXOXX@+X+.XOO+X.XXOXX@+X+.XOO+X.XXOXX@XOO+X.XXOXX@+X+...",
"...@+@@@XXXX+++XXO.@+@@@XXXX+++XXO.@+@@@XXXX++.@+@@@XXXX+++XXO..",
"..X+XX++@+@XXXX+XXX+XX++@+@XXXX+XXX+XX++@+@XXXX+XX++@+@XXXX+XX..",
"..+++++@@X@OOO.OOX+++++@@X@OOO.OOX+++++@@X@OOO+++++@@X@OOO.OOX..",
"..@@+XX++X..O.O@XX@@+XX++X..O.O@XX@@+XX++X..O.@@+XX++X..O.O@XX..",
"..+@@+..+@XXX+++@X+@@+..+@XXX+++@X+@@+..+@XXX++@@+..+@XXX+++@X..",
"..XXX+++@@@@XX+OOOXXX+++@@@@XX+OOOXXX+++@@@@XXXXX+++@@@@XX+OOO..",
"...X@@+++@..@@@XOO.X@@+++@..@@@XOO.X@@+++@..@@.X@@+++@..@@@XOO..",
"..+.@@@++.++.++X@@+.@@@++.++.++X@@+.@@@++.++.++.@@@++.++.++X@@..",
"..+OO@.+O@O.+@@@@@+OO@.+O@O.+@@@@@+OO@.+O@O.+@+OO@.+O@O.+@@@@@..",
"..+@@.O.O+@@+@+@@@+@@.O.O+@@+@+@@@+@@.O.O+@@+@+@@.O.O+@@+@+@@@..",
"..@+++X@OOO@@XXXX@@+++X@OOO@@XXXX@@+++X@OOO@@X@+++X@OOO@@XXXX@..",
"..+@@@@XOOOO@X.@@@+@@@@XOOOO@X.@@@+@@@@XOOOO@X+@@@@XOOOO@X.@@@..",
"..X@X@X...OO@.@+X@X@X@X...OO@.@+X@X@X@X...OO@.X@X@X...OO@.@+X@..",
"..XXOO.XOO.XXOX..OXXOO.XOO.XXOX..OXXOO.XOO.XXOXXOO.XOO.XXOX..O..",
"..XOO+X.XXOXX@+X+.XOO+X.XXOXX@+X+.XOO+X.XXOXX@XOO+X.XXOXX@+X+...",
"...@+@@@XXXX+++XXO.@+@@@XXXX+++XXO.@+@@@XXXX++.@+@@@XXXX+++XXO..",
"..X+XX++@+@XXXX+XXX+XX++@+@XXXX+XXX+XX++@+@XXXX+XX++@+@XXXX+XX..",
"..........+.....................................................",
"................................................................"
};
