/* XPM */
static char *_0123669ff414f2ebf61fcc4ddf4ba0bSQ3Saxxap6sOEkcP[] = {
/* columns rows colors chars-per-pixel */
"64 64 15 1 ",
"  c black",
". c #040101",
"X c #021801",
"o c #200C04",
"O c #341406",
"+ c #063E05",
"@ c #421704",
"# c #63290F",
"$ c #464646",
"% c #5F7649",
"& c #358E33",
"* c #628741",
"= c #60844A",
"- c #6ACC68",
"; c #86AA52",
/* pixels */
"$$$$$$$$$$$$$$$$$$$$$$$$$$$$$$$$$$$$$$$$$$$$$$$$$$$$$$$$$$$$$$$$",
"$$$$$$$$$$$$$$$$$$$$$$$$$$$$$$$$$$       $$$$$$$$$$$$$$$$$$$$$$$",
"$$=====;;%;***$**%            $** -------..   =====;;%;***$**%$$",
"$$;;=%%==%$$*$*;  ------------   -------------  =%%==%$$*$*;%%$$",
"$$=;;=$$=;%%%== ---------------. --------------- =$$=;%%%===;%$$",
"$$%%%===;;;;%%.----------------.----------------- ==;;;;%       ",
"$$$%;;===;$$;.---------------&&.&&-------            ;$$ -------",
"$$=$;;;==$== ----       ---&&&.&&&&----  ------------   --------",
"$            --- -------..   .&&&&&&&& ---------------. --------",
" ------------   -------------  ++.&&&.----------------.---------",
"--------------. --------------- +++&.---------------&&.&&-------",
"--------------.----------------- .+ --------------&&&.&&&&------",
"------------&&.&&--------------- + ------------&&&&&.&&&&&&&&---",
"----------&&&.&&&&--------------  ------&&&&&&&&&&&..&++.&&&&&&&",
"-------&&&&&.&&&&&&&&----------- ------&&&&&&&&&&..&&&++++&&&&&&",
"&&&&&&&&&&&..&++.&&&&&&&&------- -----&&&&.&&...&&&&++++.++&&&&&",
"&&&&&&&&&..&&&++++&&&&&&&&&&&&-- ---&&&&&&&&&&&&&&+++++++.+++&++",
"&&.&&...&&&&++++.++&&&&&&&&&&+++ -&&&&&&&&&&&++++++++++++.++++++",
"&&&&&&&&&&+++++++.+++&++++++++++ -&&&&&&&&&+++++++  ...+++..++++",
"&&&&&++++++++++++.++++++++++++    &&&&&&.++++++  +&&&&. +&--.+..",
"&&&+++++++  ...+++..+++++++++-----. &&&&&++++++ &-----&  +------",
".++++++  +&&&&. +&--.+....+--------- &&++++++..--------&& ------",
"&++++++ &-----&  +------&&.&---------..+++++ ------------..-----",
"+++++..--------&& --------..&--------- .+++.--------------.-----",
"++++ ------------..-------&...-------- -.+&&--------------------",
"+++.--------------.--------&..&&&---&&.-..&&&-------------------",
".+&&-----------------------&&&&&&&&&&&.-&&&&&&----------&&&-----",
"..&&&----------------------&&&&&&&&&&&.&&&&&&&&&-------&&&&&&---",
"&&&&&&----------&&&------&&&&&&&&&&&&& &&&&&&&&&&-&--&&+..&&&&&&",
"&&&&&&&&-------&&&&&&---&&&&&&&&&&.... .....&&&&&&&&&&++.++&&&&&",
"&&&&&&&&&-&--&&+..&&&&&&&&&&&&&....++... ++..&++&&&&++++.++&&&&&",
"....&&&&&&&&&&++.++&&&&&&&&&&+.+++++++++ +++++++++++++++++++&&&&",
"+++..&++&&&&++++.++&&&&&&&&&++++++++++++ ++++++++++++++++.++++&&",
"++++++++++++++++++++&&&&&&++++++++++++++ ++++++..++++++++.++++++",
"+++++++++++++++++.++++&&&+++++..++++++++ +++++++.+++++++++..++++",
"+++++++..++++++++.+++++++++++..+++++++X+ ++++++++.++++++++++....",
"++++++++.+++++++++..++++++.++.+++++++XX + +++++++.++++++++++++++",
"+++++++++.++++++++++.....++++++++++XXXX  +++++++++++++++++++++++",
"+ +++++++.+++++++++++++++++++++++XXXXXX  X++++++++X.++++++++++++",
" ++++++++++++++++++++++++++++XXXXXXXXXX XXXXX++++XX.XX+++++++++X",
" X++++++++X.++++++++++++++XXXXXXXXXXX  XXXXXXXXXXXX..XX++++++XXX",
"XXXXX++++XX.XX+++++++++XXXXXX.XXXXX   XXXXXXXXXXXXXX XXXXXXXXXXX",
"XXXXXXXXXXX..XX++++++XXXXXXX..XXXX XXX XXXXXXXXXXXXXX XXXXXXXXXX",
"XXXXXXXXXXXX XXXXXXXXXXXXXXX.XXXXX .   XXXXXXXXXXXXXX XXXXXXXXXX",
"XXXXXXXXXXXXX XXXXXXXXXXXXX..XXXX #o =% XXXXXXXXXXXXXX XXXXXXXXX",
"XXXXXXXXXXXXX XXXXXXXXXXXX..XXXXX # =;;;  XXXXXXXX XX   XXXXXXX ",
"XXXXXXXXXXXXXX XXXXXXXXX...XXXXX O# %%==;=  XXXXXX    oo  XXXX  ",
"  XXXXXXXX XX   XXXXXXX         #O# ===;;%;*        o@@@o .    $",
"$$  XXXXXX    oo  XXXX  =%$ #@#o#@# =%%==%$$*$;;=% oO@@@@#o %%$$",
"$$=;        o@@@o .    $=;% #O@#O@# ;=$$=;%%%==;;= #O@@@O# =;%$$",
"$$%%%===;; oO@@@@#o %===;;; #O@@O@# %===;;;;%%%%%= #OO#@O# ***$$",
"$$$%;;===; #O@@@O# %;;===;$ #O@@O@# ;;===;$$;;$%;; #O#o#O# %**$$",
"$$=$;;;==$ #OO#@O# $;;;==$= #@@@@@# ;;;==$==$==$;; #@#o#@# %;;$$",
"$$=**;$=*; #O#o#O# **;$=*; #o@@O@@@# ;$=*;*$=;=**; #O@#O@# ;;;$$",
"$$=;;$*$*= #@#o#@# ;;$*$* #oo.@@@.o@# *$*=;;=;=;;$ #O@@O@# ;;;$$",
"$$;===%;** #O@#O@# ===%; #o..oo@@o..o# ;***;;%;=== #O@@O@# %%;$$",
"$$=;;;;%** #O@@O@# ;;;; oo ooooooooo oo ****;%=;;; #@@@@@# ;;;$$",
"$$%;%;%$$$ #O@@O@# ;%;                   $**;$%;% #o@@O@@@# %;$$",
"$$%%**$%** #@@@@@# %**$%**$%%*%$$*%%**$%**$%%*%% #oo.@@@.o@# *$$",
"$$%**=%$% #o@@O@@@# *=%$%%*%%;=%=$%**=%$%%*%%;% #o..oo@@o..o# $$",
"$$$;=;;; #oo.@@@.o@# ;;;%%%%===%%*$;=;;;%%%%== oo ooooooooo oo $",
"$$%=%%= #o..oo@@o..o# ==;=;%%%%=%%%=%%==;=;%%                   ",
"$$$$$$ oo ooooooooo oo $$$$$$$$$$$$$$$$$$$$$$$$$$$$$$$$$$$$$$$$$",
"$$$$$                   $$$$$$$$$$$$$$$$$$$$$$$$$$$$$$$$$$$$$$$$"
};
