/* XPM */
static char *_c3133ed65ac40d695a7ccb086171494Wxj4CMPUdbfhZ55o[] = {
/* columns rows colors chars-per-pixel */
"64 64 12 1 ",
"  c black",
". c #042B03",
"X c #084507",
"o c #464646",
"O c #5F7649",
"+ c #A30808",
"@ c #EC0000",
"# c #F43F3F",
"$ c #248D22",
"% c #628741",
"& c #60844A",
"* c #86AA52",
/* pixels */
"oooooooooooooooooooooooooooooooooooooooooooooooooooooooooooooooo",
"oooooooooooooooooooooooooooooooooooooooooooooooooooooooooooooooo",
"oo&&&&&**O*%%%o%%O&&&&&**O*%%%o%%O&&&&&**O*%%%&&&&&**O*%%%o%%Ooo",
"oo**&OO&&Ooo%o%*OO**&OO&&Ooo%o%*OO**&OO&&Ooo%o**&OO&&Ooo%o%*OOoo",
"oo&**&oo&*OOO&&&*O&**&oo&*OOO&&&*O&**&oo&*OOO&&**&oo&*OOO&&&*Ooo",
"ooOOO&&&****OO&%%%OOO&&&****OO&%%%OOO&&&****OOOOO&&&****OO&%%%oo",
"oooO**&&&*oo***O%%oO**&&&*oo***O%%oO**&&&*oo**oO**&&&*oo***O%%oo",
"oo&o***&&o&&o&&O**&o***&&o&&o&&O**&o***&&o&&o&&o***&&o&&o&&O**oo",
"oo&%%*o&%*%o&*****&%%*o&%*%o&*****&%%*o&%*%o&*&%%*o&%*%o&*****oo",
"oo&**o%o%&**&*&***&**o%o%&**&*&***&**o%o%&**&*&**o%o%&**&*&***oo",
"oo*&&&O*%%%**OOOO**&&&O*%%%**OOOO**&&&O*%%%**O*&&&O*%%%**OOOO*oo",
"oo&****O%%%%*Oo***&****O%%%%*Oo***&****O%%%%*O&****O%%%%*Oo***oo",
"ooO*O*Oooo%%*o*&O*O*O*Oooo%%*o*&O*O*O*Oooo%%*oO*O*Oooo%%*o*&O*oo",
"ooOO%%oO%%oOO%Ooo%OO%%oO%%oOO%Ooo%OO%%oO%%oOO%OO%%oO%%oOO%Ooo%oo",
"ooO%%&OoOO%OO*&O&oO%%&OoOO%OO*&O&oO%%&OoOO%OO*O%%&OoOO%OO*&O&ooo",
"ooo*&***OOOO&&&OO%o*&***OOOO&&&OO%o*&***OOOO&&o*&***OOOO&&&OO%oo",
"ooO&OO&&*&*OOOO&OOO&OO&&*&*OOOO&OOO&OO&&*&*OOOO&OO&&*&*OOOO&OOoo",
"oo&&&&&**O*%%%o%%O&&&&&**O*%%%o%%O&&&&&**O*%%%&&&&&**O*%%%o%%Ooo",
"oo**&OO&&Ooo%o%*OO**&OO&&Ooo%o%*OO**&OO&&Ooo%o**&OO&&Ooo%o%*OOoo",
"oo&**&oo&*OOO&&&*O&**&oo&*OOO&&&*O&**&oo&*OOO&&**&oo&*OOO&&&*Ooo",
"ooOOO&&&****OO&%%%OOO&&&****OO&%%%OOO&&&****OOOOO&&&****OO&%%%oo",
"oooO**&&&*oo***O%%oO**&&&*oo***O%%oO**&&&*oo**oO**&&&*oo***O%%oo",
"oo&o***&&o&&o&&O**&o***&&o&&o&&O**&o***&&o&&o&&o***&&o&&o&&O**oo",
"oo&%%*o&%*%o&*****&%%*o&%*%o&*****&%%*o&%*%o&*&%%*o&%*%o&*****oo",
"oo&**o%o%&**&*&***&**o%o%&** *&* *&**o%o%&**&*&**o%o%&**&*&***oo",
"oo*&&&O*%%%**OOOO**&&&O*%%% #   # *&&&O*%%%**O*&&&O*%%%**OOOO*oo",
"oo&****O%%%%*Oo***&**** %%  @# #@  ** *O%%%%*O&****O%%%%*Oo***oo",
"ooO*O*Oooo%%*o*&O*O*O* #   # @@@ #   # ooo%%*oO*O*Oooo%%*o*&O*oo",
"ooOO%%oO%%oOO%Ooo%OO% #@# #@# @ #@# #@# %%oOO%OO%%oO%%oOO%Ooo%oo",
"ooO%%&OoOO%OO*&O&oO%% @@@@@@@ + @@@@@@@ OO%OO*O%%&OoOO%OO*&O&ooo",
"ooo*&***OOOO&&&OO%o*& +@@@@+ ++ +@@@@+ *OOOO&&o*&***OOOO&&&OO%oo",
"ooO&OO&&*&*OOOO&OOO&OO +@+@+  .  +@+@+ &*&*OOOO&OO&&*&*OOOO&OOoo",
"oo&&&&&**O*%%%o%%O&&&&& +++ % . % +++ &**O*%%%&&&&&**O*%%%o%%Ooo",
"oo**&OO&&Ooo%o%*OO**&OO& . $  $  $ . OO&&Ooo%o**&OO&&Ooo%o%*OOoo",
"oo&**&oo&*OOO&&&*O&**  o . .  X  . . &  &*OOO&&**&oo&*OOO&&&*Ooo",
"ooOOO&&&****OO&%%%OO $$  $  $$ $$  $  $$ ***OOOOO&&&****OO&%%%oo",
"oooO**&&&*oo***O%%o ...$$X$$. ...$$X$$... oo**oO**&&&*oo***O%%oo",
"oo&o***&&o&&o&&O**&o   .XXXX     .XXXX   o&&o&&o***&&o&&o&&O**oo",
"oo&%%*o&%*%o&*****&%%*o .X. & X * .X. o&%*%o&*&%%*o&%*%o&*****oo",
"oo&**o%o%&**&*&***&**o%o X *& . ** X o%o%&**&*&**o%o%&**&*&***oo",
"oo*&&&O*%%%**OOOO**&&&O* X ** . O* X &O*%%%**O*&&&O*%%%**OOOO*oo",
"oo&****O%%%%*Oo***&****O . %*O *** . **O%%%%*O&****O%%%%*Oo***oo",
"ooO*O*Oooo%%*o*&O*O*O*Oo . %*o*&O* . *Oooo%%*oO*O*Oooo%%*o*&O*oo",
"ooOO%%oO%%oOO%Ooo%OO%%oO% oOO%Ooo%O %%oO%%oOO%OO%%oO%%oOO%Ooo%oo",
"ooO%%&OoOO%OO*&O&oO%%&OoOO%OO*&O&oO%%&OoOO%OO*O%%&OoOO%OO*&O&ooo",
"ooo*&***OOOO&&&OO%o*&***OOOO&&&OO%o*&***OOOO&&o*&***OOOO&&&OO%oo",
"ooO&OO&&*&*OOOO&OOO&OO&&*&*OOOO&OOO&OO&&*&*OOOO&OO&&*&*OOOO&OOoo",
"oo&&&&&**O*%%%o%%O&&&&&**O*%%%o%%O&&&&&**O*%%%&&&&&**O*%%%o%%Ooo",
"oo**&OO&&Ooo%o%*OO**&OO&&Ooo%o%*OO**&OO&&Ooo%o**&OO&&Ooo%o%*OOoo",
"oo&**&oo&*OOO&&&*O&**&oo&*OOO&&&*O&**&oo&*OOO&&**&oo&*OOO&&&*Ooo",
"ooOOO&&&****OO&%%%OOO&&&****OO&%%%OOO&&&****OOOOO&&&****OO&%%%oo",
"oooO**&&&*oo***O%%oO**&&&*oo***O%%oO**&&&*oo**oO**&&&*oo***O%%oo",
"oo&o***&&o&&o&&O**&o***&&o&&o&&O**&o***&&o&&o&&o***&&o&&o&&O**oo",
"oo&%%*o&%*%o&*****&%%*o&%*%o&*****&%%*o&%*%o&*&%%*o&%*%o&*****oo",
"oo&**o%o%&**&*&***&**o%o%&**&*&***&**o%o%&**&*&**o%o%&**&*&***oo",
"oo*&&&O*%%%**OOOO**&&&O*%%%**OOOO**&&&O*%%%**O*&&&O*%%%**OOOO*oo",
"oo&****O%%%%*Oo***&****O%%%%*Oo***&****O%%%%*O&****O%%%%*Oo***oo",
"ooO*O*Oooo%%*o*&O*O*O*Oooo%%*o*&O*O*O*Oooo%%*oO*O*Oooo%%*o*&O*oo",
"ooOO%%oO%%oOO%Ooo%OO%%oO%%oOO%Ooo%OO%%oO%%oOO%OO%%oO%%oOO%Ooo%oo",
"ooO%%&OoOO%OO*&O&oO%%&OoOO%OO*&O&oO%%&OoOO%OO*O%%&OoOO%OO*&O&ooo",
"ooo*&***OOOO&&&OO%o*&***OOOO&&&OO%o*&***OOOO&&o*&***OOOO&&&OO%oo",
"ooO&OO&&*&*OOOO&OOO&OO&&*&*OOOO&OOO&OO&&*&*OOOO&OO&&*&*OOOO&OOoo",
"oooooooooo&ooooooooooooooooooooooooooooooooooooooooooooooooooooo",
"oooooooooooooooooooooooooooooooooooooooooooooooooooooooooooooooo"
};
