/* XPM */
static char *c22a23f424494584ed84a83f5e96efceRlfg4iPPVUYrCPxW[] = {
/* columns rows colors chars-per-pixel */
"64 64 10 1 ",
"  c black",
". c #464646",
"X c #5F7649",
"o c #ED1C24",
"O c #628741",
"+ c #60844A",
"@ c #FFF200",
"# c #86AA52",
"$ c #546D8E",
"% c white",
/* pixels */
"................................................................",
"................................................................",
"..+++++##X#OOO.OOX+++++##X#OOO.OOX+++++##X#OOO+++++##X#OOO.OOX..",
"..##+XX++X..O.O#XX##+XX++X..O.O#XX##+XX++X..O.##+XX++X..O.O#XX..",
"..+##+..+#XXX+++#X+##+..+#XXX+++#X+##+..+#XXX++##+..+#XXX+++#X..",
"..XXX+++####XX+OOOXXX+++####XX+OOOXXX+++####XXXXX+++####XX+OOO..",
"...X##+++#..###XOO.X##+++#..###XOO.X##+++#..##.X##+++#..###XOO..",
"..+.###++.++.++X##+.###++.++.++X##+.###++.++.++.###++.++.++X##..",
"..+OO#.+O#O.+#####+OO#.+O#O.+#####+OO#.+O#O.+#+OO#.+O#O.+#####..",
"..+##.O.O+##+#+###+##.O.O+##+#+###+##.O.O+##+#+##.O.O+##+#+###..",
"..#+++X#OOO##XXXX##+++X#OOO##XXXX  +++X#OOO##X#+++X#OOO##XXXX#..",
"..+####XOOOO#X.###+####XO   #X.# oo #   OOOO#X+####XOOOO#X.###..",
"..X#X#X...OO#.#+X#X#X#X. %%%    oooo %%% .OO#.X#X#X...OO#.#+X#..",
"..XXOO.XOO.XXOX..OXXOO.X %%%%%% ooo   %% O.XXOXXOO.XOO.XXOX..O..",
"..XOO+X.XXOXX#+X+.XOO+X. %%%%%% oo ooo   XOXX#XOO+X.XXOXX#+X+...",
"...#+###XXXX+++XXO.#+###X %%%%%%   ooo oo XX++.#+###XXXX+++XXO..",
"..X+XX++#+#XXXX+XXX+XX++ %%%%%%%%%%   ooo #XXXX+XX++#+#XXXX+XX..",
"..+++++##X#OOO.OOX+++++# %%%%%%%%%%%% oo X#OOO+++++##X#OOO.OOX..",
"..##+XX++X..O.O#XX##+XX+ %%%%%%%%%%%%%  +X..O.##+XX++X..O.O#XX..",
"..+##+..+#XXX+++#X+##+. %%%% %%%%%% %%%% #XXX++##+..+#XXX+++#X..",
"..XXX+++####XX+OOOXXX    %%% %%%%%% %%%    #XXXXX+++####XX+OOO..",
"...X##+++#..###XOO.X##++  %%%%%@@%%%%%  +#..##.X##+++#..###XOO..",
"..+.###++.++.++X##+.##   %%%%%%%%%%%%%%   ++.++.###++.++.++X##..",
"..+OO#.+O#O.+#####+OO#.+O %%%%%%%%%%%% +O#O.+#+OO#.+O#O.+#####..",
"..+##.O.O+##+#+###+##.O.O+  %%%%%%%%  O.O+##+#+##.O.O+##+#+###..",
"..#+++X#OOO##XXXX##+++X#O o          o #OOO##X#+++X#OOO##XXXX#..",
"..+####XOOOO#X.###+####XO o $$ oo $$ o XOOOO#X+####XOOOO#X.###..",
"..X#X#X...OO#.#+X#X#X#X. oo $$$  $$$ oo ..OO#.X#X#X...OO#.#+X#..",
"..XXOO.XOO.XXOX..OXXOO.    $$$$$$$$$$    O.XXOXXOO.XOO.XXOX..O..",
"..XOO+X.XXOXX#+X+.XOO+ %%% $$%$$$$%$$ %%% OXX#XOO+X.XXOXX#+X+...",
"...#+###XXXX+++XXO.#+# %% $$$$$$$$$$$$ %% XX++.#+###XXXX+++XXO..",
"..X+XX++#+#XXXX+XXX+XX+   $$$$$$$$$$$$   +#XXXX+XX++#+#XXXX+XX..",
"..+++++##X#OOO.OOX+++++## $$$$$$$$$$$$ ##X#OOO+++++##X#OOO.OOX..",
"..##+XX++X..O.O#XX##+XX++X $$$$$$$$$$ X++X..O.##+XX++X..O.O#XX..",
"..+##+..+#XXX+++#X+##+..+#X $$$  $$$ +..+#XXX++##+..+#XXX+++#X..",
"..XXX+++####XX+OOOXXX+++###          +++####XXXXX+++####XX+OOO..",
"...X##+++#..###XOO.X##+++# %%%%  %%%% +++#..##.X##+++#..###XOO..",
"..+.###++.++.++X##+.###++. %%%%  %%%% #++.++.++.###++.++.++X##..",
"..+OO#.+O#O.+#####+OO#.+O#O          #.+O#O.+#+OO#.+O#O.+#####..",
"..+##.O.O+##+#+###+##.O.O+##+#+###+##.O.O+##+#+##.O.O+##+#+###..",
"..#+++X#OOO##XXXX##+++X#OOO##XXXX##+++X#OOO##X#+++X#OOO##XXXX#..",
"..+####XOOOO#X.###+####XOOOO#X.###+####XOOOO#X+####XOOOO#X.###..",
"..X#X#X...OO#.#+X#X#X#X...OO#.#+X#X#X#X...OO#.X#X#X...OO#.#+X#..",
"..XXOO.XOO.XXOX..OXXOO.XOO.XXOX..OXXOO.XOO.XXOXXOO.XOO.XXOX..O..",
"..XOO+X.XXOXX#+X+.XOO+X.XXOXX#+X+.XOO+X.XXOXX#XOO+X.XXOXX#+X+...",
"...#+###XXXX+++XXO.#+###XXXX+++XXO.#+###XXXX++.#+###XXXX+++XXO..",
"..X+XX++#+#XXXX+XXX+XX++#+#XXXX+XXX+XX++#+#XXXX+XX++#+#XXXX+XX..",
"..+++++##X#OOO.OOX+++++##X#OOO.OOX+++++##X#OOO+++++##X#OOO.OOX..",
"..##+XX++X..O.O#XX##+XX++X..O.O#XX##+XX++X..O.##+XX++X..O.O#XX..",
"..+##+..+#XXX+++#X+##+..+#XXX+++#X+##+..+#XXX++##+..+#XXX+++#X..",
"..XXX+++####XX+OOOXXX+++####XX+OOOXXX+++####XXXXX+++####XX+OOO..",
"...X##+++#..###XOO.X##+++#..###XOO.X##+++#..##.X##+++#..###XOO..",
"..+.###++.++.++X##+.###++.++.++X##+.###++.++.++.###++.++.++X##..",
"..+OO#.+O#O.+#####+OO#.+O#O.+#####+OO#.+O#O.+#+OO#.+O#O.+#####..",
"..+##.O.O+##+#+###+##.O.O+##+#+###+##.O.O+##+#+##.O.O+##+#+###..",
"..#+++X#OOO##XXXX##+++X#OOO##XXXX##+++X#OOO##X#+++X#OOO##XXXX#..",
"..+####XOOOO#X.###+####XOOOO#X.###+####XOOOO#X+####XOOOO#X.###..",
"..X#X#X...OO#.#+X#X#X#X...OO#.#+X#X#X#X...OO#.X#X#X...OO#.#+X#..",
"..XXOO.XOO.XXOX..OXXOO.XOO.XXOX..OXXOO.XOO.XXOXXOO.XOO.XXOX..O..",
"..XOO+X.XXOXX#+X+.XOO+X.XXOXX#+X+.XOO+X.XXOXX#XOO+X.XXOXX#+X+...",
"...#+###XXXX+++XXO.#+###XXXX+++XXO.#+###XXXX++.#+###XXXX+++XXO..",
"..X+XX++#+#XXXX+XXX+XX++#+#XXXX+XXX+XX++#+#XXXX+XX++#+#XXXX+XX..",
"..........+.....................................................",
"................................................................"
};
