/* XPM */
static char *b53c73df78494c8ffa5c72a012b1e37eCyohplJi1NG6E9Gl[] = {
/* columns rows colors chars-per-pixel */
"64 64 10 1 ",
"  c black",
". c #464646",
"X c #5F7649",
"o c #ED1C24",
"O c #628741",
"+ c #60844A",
"@ c #FFF200",
"# c #86AA52",
"$ c #546D8E",
"% c white",
/* pixels */
"................................................................",
"................................................................",
"..+++++##X#OOO.OOX+++++##X#OOO.OOX+++++##X#OOO+++++##X#OOO.OOX..",
"..##+XX++X..O.O#XX##+XX++X..O.O#XX##+XX++X..O.##+XX++X..O.O#XX..",
"..+##+..+#XXX+++#X+##+..+#XXX+++#X+##+..+#XXX++##+..+#XXX+++#X..",
"..XXX+++####XX+OOOXXX+++####XX+OOOXXX+++####XXXXX+++####XX+OOO..",
"...X##+++#..###XOO.X##+++#..###XOO.X##+++#..##.X##+++#..###XOO..",
"..+.###++.++.++X##+.###++.++.++X##+.###++.++.++.###++.++.++X##..",
"..+OO#.+O#O.+#####+OO#.+O#O.+#####+OO#.+O#O.+#+OO#.+O#O.+#####..",
"..+##.O.O+##+#+###+##.O.O+##+#+###+##.O.O+##+#+##.O.O+##+#+###..",
"..#+++X#OOO##XXXX##+++X#OOO##XXXX##+++X#OOO##X#+++X#OOO##XXXX#..",
"..+####XOOOO#X.###+####XOOOO#X.  #+####XOOOO#X+####XOOOO#X.###..",
"..X#X#X...OO#.#+X#X#X#X.   O#. oo X   X...OO#.X#X#X...OO#.#+X#..",
"..XXOO.XOO.XXOX..OXXOO. %%%   oooo %%% XOO.XXOXXOO.XOO.XXOX..O..",
"..XOO+X.XXOXX#+X+.XOO+X %%%%% ooo   %% .XXOXX#XOO+X.XXOXX#+X+...",
"...#+###XXXX+++XXO.#+## %%%%% oo ooo   #XXXX++.#+###XXXX+++XXO..",
"..X+XX++#+#XXXX+XXX+XX++ %%%%%   ooo oo #+#XXXX+XX++#+#XXXX+XX..",
"..+++++##X#OOO.OOX+++++ %%%%%%%%%   ooo #X#OOO+++++##X#OOO.OOX..",
"..##+XX++X..O.O#XX##+XX %%%%%%%%%%% oo ++X..O.##+XX++X..O.O#XX..",
"..+##+..+#XXX+++#X+##+. %%%%%%%%%%%%  ..+#XXX++##+..+#XXX+++#X..",
"..XXX+++####XX+OOOXXX+ %%% %%%%%% %%%% +####XXXXX+++####XX+OOO..",
"...X##+++#..###XOO.X    %% %%%%%% %%%    #..##.X##+++#..###XOO..",
"..+.###++.++.++X##+.###  %%%%@@%%%%%  #++.++.++.###++.++.++X##..",
"..+OO#.+O#O.+#####+OO   %%%%%%%%%%%%%   O#O.+#+OO#.+O#O.+#####..",
"..+##.O.O+##+#+###+##.O. %%%%%%%%%%  .O.O+##+#+##.O.O+##+#+###..",
"..#+++X#OOO##XXXX##+++X#O  %%%%%%%  ++X#OOO##X#+++X#OOO##XXXX#..",
"..+####XOOOO#X.###+####X o        oo ##XOOOO#X+####XOOOO#X.###..",
"..X#X#X...OO#.#+X#X#X#X. o $ oo $$ o #X...OO#.X#X#X...OO#.#+X#..",
"..XXOO.XOO.XXOX..OXXOO. oo $$  $$$ oo .XOO.XXOXXOO.XOO.XXOX..O..",
"..XOO+X.XXOXX#+X+.XOO+X   $$$$$$$$$    .XXOXX#XOO+X.XXOXX#+X+...",
"...#+###XXXX+++XXO.#+# %% $%$$$$%$$ %%% XXXX++.#+###XXXX+++XXO..",
"..X+XX++#+#XXXX+XXX+XX % $$$$$$$$$$$ %% #+#XXXX+XX++#+#XXXX+XX..",
"..+++++##X#OOO.OOX+++++  $$$$$$$$$$$   ##X#OOO+++++##X#OOO.OOX..",
"..##+XX++X..O.O#XX##+XX+ $$$$$$$$$$$ XX++X..O.##+XX++X..O.O#XX..",
"..+##+..+#XXX+++#X+##+..+ $$$$$$$$$ #+..+#XXX++##+..+#XXX+++#X..",
"..XXX+++####XX+OOOXXX+++## $$$$$$$ XX+++####XXXXX+++####XX+OOO..",
"...X##+++#..###XOO.X##+++#         X##+++#..##.X##+++#..###XOO..",
"..+.###++.++.++X##+.###++ %%%% %%%% ###++.++.++.###++.++.++X##..",
"..+OO#.+O#O.+#####+OO#.+O %%%% %%%% O#.+O#O.+#+OO#.+O#O.+#####..",
"..+##.O.O+##+#+###+##.O.O+         ##.O.O+##+#+##.O.O+##+#+###..",
"..#+++X#OOO##XXXX##+++X#OOO##XXXX##+++X#OOO##X#+++X#OOO##XXXX#..",
"..+####XOOOO#X.###+####XOOOO#X.###+####XOOOO#X+####XOOOO#X.###..",
"..X#X#X...OO#.#+X#X#X#X...OO#.#+X#X#X#X...OO#.X#X#X...OO#.#+X#..",
"..XXOO.XOO.XXOX..OXXOO.XOO.XXOX..OXXOO.XOO.XXOXXOO.XOO.XXOX..O..",
"..XOO+X.XXOXX#+X+.XOO+X.XXOXX#+X+.XOO+X.XXOXX#XOO+X.XXOXX#+X+...",
"...#+###XXXX+++XXO.#+###XXXX+++XXO.#+###XXXX++.#+###XXXX+++XXO..",
"..X+XX++#+#XXXX+XXX+XX++#+#XXXX+XXX+XX++#+#XXXX+XX++#+#XXXX+XX..",
"..+++++##X#OOO.OOX+++++##X#OOO.OOX+++++##X#OOO+++++##X#OOO.OOX..",
"..##+XX++X..O.O#XX##+XX++X..O.O#XX##+XX++X..O.##+XX++X..O.O#XX..",
"..+##+..+#XXX+++#X+##+..+#XXX+++#X+##+..+#XXX++##+..+#XXX+++#X..",
"..XXX+++####XX+OOOXXX+++####XX+OOOXXX+++####XXXXX+++####XX+OOO..",
"...X##+++#..###XOO.X##+++#..###XOO.X##+++#..##.X##+++#..###XOO..",
"..+.###++.++.++X##+.###++.++.++X##+.###++.++.++.###++.++.++X##..",
"..+OO#.+O#O.+#####+OO#.+O#O.+#####+OO#.+O#O.+#+OO#.+O#O.+#####..",
"..+##.O.O+##+#+###+##.O.O+##+#+###+##.O.O+##+#+##.O.O+##+#+###..",
"..#+++X#OOO##XXXX##+++X#OOO##XXXX##+++X#OOO##X#+++X#OOO##XXXX#..",
"..+####XOOOO#X.###+####XOOOO#X.###+####XOOOO#X+####XOOOO#X.###..",
"..X#X#X...OO#.#+X#X#X#X...OO#.#+X#X#X#X...OO#.X#X#X...OO#.#+X#..",
"..XXOO.XOO.XXOX..OXXOO.XOO.XXOX..OXXOO.XOO.XXOXXOO.XOO.XXOX..O..",
"..XOO+X.XXOXX#+X+.XOO+X.XXOXX#+X+.XOO+X.XXOXX#XOO+X.XXOXX#+X+...",
"...#+###XXXX+++XXO.#+###XXXX+++XXO.#+###XXXX++.#+###XXXX+++XXO..",
"..X+XX++#+#XXXX+XXX+XX++#+#XXXX+XXX+XX++#+#XXXX+XX++#+#XXXX+XX..",
"..........+.....................................................",
"................................................................"
};
