/* XPM */
static char *dc6a7d45c121441b8ddd72fddc2920dfEX9uKy8nUphefBIz[] = {
/* columns rows colors chars-per-pixel */
"64 64 13 1 ",
"  c black",
". c #7D452D",
"X c #464646",
"o c #5F7649",
"O c #ED1C24",
"+ c #628741",
"@ c #60844A",
"# c #FFF200",
"$ c #86AA52",
"% c #546D8E",
"& c #D3F9BC",
"* c #FFF9BD",
"= c white",
/* pixels */
"XXXXXXXXXXXXXXXXXXXXXXXXXXXXXXXXXXXXXXXXXXXXXXXXXXXXXXXXXXXXXXXX",
"XXXXXXXXXXXXXXXXXXXXXXXXXXXXXXXXXXXXXXXXXXXXXXXXXXXXXXXXXXXXXXXX",
"XX@@@@@$$o$+++X++o@@@@@$$o$+++X++o@@@@@$$o$+++@@@@@$$o$+++X++oXX",
"XX$$@oo@@oXX+X+$oo$$@oo@@oXX+X+$oo$$@oo@@oXX+X$$@oo@@oXX+X+$ooXX",
"XX@$$@XX@$ooo@@@$o@$$@XX@$ooo@@@$o@$$@XX@$ooo@@$$@XX@$ooo@@@$oXX",
"XXooo@@@$$$$oo@+++ooo@@@$$$$oo@+++ooo@@@$$$$ooooo@@@$$$$oo@+++XX",
"XXXo$$@@@$XX$$$o++Xo$$@@@$XX$$$o++Xo$$@@@$XX$$Xo$$@@@$XX$$$o++XX",
"XX@X$$$@@X@@X@@o$$@X$$$@@X@@X@@o$$@X$$$@@X@@X@@X$$$@@X@@X@@o$$XX",
"XX@++$X@+$+X@$$$$$@++$X@+$+X@$$$$.@++$X@+$+X@$@++$X@+$+X@$$$$$XX",
"XX@$$X+X+@$$@$@$$$@$$X+X+@$$@$@.....$X+X+@$$@$@$$X+X+@$$@$@$$$XX",
"XX$@@@o$+++$$oooo$$@@@o$+++$$........@o$+++$$o$@@@o$+++$$oooo$XX",
"XX@$$$$o++++$oX$$$@$$$$o++++...........o++++$o@$$$$o++++$oX$$$XX",
"XXo$o$oXXX++$X$@o$o$o$oXXX...............X++$Xo$o$oXXX++$X$@o$XX",
"XXoo++Xo++Xoo+oXX+oo++Xo..................Xoo+oo++Xo++Xoo+oXX+XX",
"XXo++@oXoo+oo$@o@Xo++@o........&&#&&........o$o++@oXoo+oo$@o@XXX",
"XXX$@$$$oooo@@@oo+X$@.........&&&&&&&........@X$@$$$oooo@@@oo+XX",
"XXo@oo@@$@$oooo@ooo..........&&&&&&&&&.........@oo@@$@$oooo@ooXX",
"XX@@@@@$$o$+++X++o...........&&&&&&&&&..........@@@$$o$+++X++oXX",
"XX$$@oo@@oXX+X+$ooO.............................@oo@@oXX+X+$ooXX",
"XX@$$@XX@$ooo@@@$oOOOOOOOOOOOOO*OOOOOOOOOOOOOOOO$@XX@$ooo@@@$oXX",
"XXooo@@@$$$$oo@+++OOOOO***OOO****OOOOOOOOOOOOOOOo@@@$$$$oo@+++XX",
"XXXo$$@@@$XX$$$o++OOOO**OOOOO*OOOO***OOOOOOOOOOO$$@@@$XX$$$o++XX",
"XX@X$$$@@X@@X@@o$$OOOO*O**OOOOOOO**OOOOO***OOOOO$$$@@X@@X@@o$$XX",
"XX@++$X@+$+X@$$$$$OOOOOO*OOOOOOOO*OOOOOOOO**OOOO+$X@+$+X@$$$$$XX",
"XX@$$X+X+@$$@$@$$$OOO****OO***OOOOOOOOOOOOOOOOOO$X+X+@$$@$@$$$XX",
"XX$@@@o$+++$$oooo$OOOOOOOOOOO**OOOOOOOOO*****OOO@@o$+++$$oooo$XX",
"XX@$$$$o++++$oX$$$OO**OOOOOOOOOOOOO*OOOOOOOO**OO$$$o++++$oX$$$XX",
"XXo$o$oXXX++$X$@o$OOO*OO&&&&&&&&OO**OO  OOOOOOOOo$oXXX++$X$@o$XX",
"XXoo++Xo++Xoo+oXX+OOO**O&&&=&&&   **O OO O   OOO++Xo++Xoo+oXX+XX",
"XXo++@oXoo+oo$@o@XOOOOOO&&=&&& ===   OOOO === OO+@oXoo+oo$@o@XXX",
"XXX$@$$$oooo@@@oo+OOOO**&=&&&& ===== OOO   == OO@$$$oooo@@@oo+XX",
"XXo@oo@@$@$oooo@ooOOO**O&&&&&& ===== OO OOO   OOoo@@$@$oooo@ooXX",
"XX@@@@@$$o$+++X++oOOO*OO&&&&&&& =====   OOO OO O@@@$$o$+++X++oXX",
"XX$$@oo@@oXX+X+$ooOO*OOO&&&&&& =========   OOO O@oo@@oXX+X+$ooXX",
"XX@$$@XX@$ooo@@@$oOO**OO&&&&&& =========== OO OO$@XX@$ooo@@@$oXX",
"XXooo@@@$$$$oo@+++OOO***&&&&&& ============  OOOo@@@$$$$oo@+++XX",
"XXXo$$@@@$XX$$$o++OOOOOOOOOOO === ====== ==== OO$$@@@$XX$$$o++XX",
"XX@X$$$@@X@@X@@o$$OOOOO****    == ====== ===    $$$@@X@@X@@o$$XX",
"XX@++$X@+$+X@$$$$$OOOO**OOOOOO  ====##=====  OOO+$X@+$+X@$$$$$XX",
"XX@$$X+X+@$$@$@$$$O***OOOOOO   =============   O$X+X+@$$@$@$$$XX",
"XX$@@@o$+++$$oooo$OOO**OOOOOO** ==========  .OOO@@o$+++$$oooo$XX",
"XX@$$$$o++++$oX$$$OOOOOOOOOOOOOO  =======  ..OOO$$$o++++$oX$$$XX",
"XXo$o$oXXX++$X$@o$OOO****OOO*** O        OO .OOOo$oXXX++$X$@o$XX",
"XXoo++Xo++Xoo+oXX+O***OOOOOO*O* O % OO %% O .OOO++Xo++Xoo+oXX+XX",
"XXo++@oXoo+oo$@o@XOOOOOOOOOO*O OO %%  %%% OO OOO+@oXoo+oo$@o@XXX",
"XXX$@$$$oooo@@@oo+OOOOOOOOOOOO   %%%%%%%%%    OO@$$$oooo@@@oo+XX",
"XXo@oo@@$@$oooo@ooOOOOOOOOOOO == %=%%%%=%% === Ooo@@$@$oooo@ooXX",
"XX@@@@@$$o$+++X++o@@@@@$$o$++ = %%%%%%%%%%% == @@@@$$o$+++X++oXX",
"XX$$@oo@@oXX+X+$oo$$@oo@@oXX+X  %%%%%%%%%%%   $$@oo@@oXX+X+$ooXX",
"XX@$$@XX@$ooo@@@$o@$$@XX@$ooo@@ %%%%%%%%%%% o@@$$@XX@$ooo@@@$oXX",
"XXooo@@@$$$$oo@+++ooo@@@$$$$oo@+ %%%%%%%%% $ooooo@@@$$$$oo@+++XX",
"XXXo$$@@@$XX$$$o++Xo$$@@@$XX$$$o+ %%%%%%% XX$$Xo$$@@@$XX$$$o++XX",
"XX@X$$$@@X@@X@@o$$@X$$$@@X@@X@@o$         @@X@@X$$$@@X@@X@@o$$XX",
"XX@++$X@+$+X@$$$$$@++$X@+$+X@$$$ ==== ==== X@$@++$X@+$+X@$$$$$XX",
"XX@$$X+X+@$$@$@$$$@$$X+X+@$$@$@$ ==== ==== $@$@$$X+X+@$$@$@$$$XX",
"XX$@@@o$+++$$oooo$$@@@o$+++$$oooo         +$$o$@@@o$+++$$oooo$XX",
"XX@$$$$o++++$oX$$$@$$$$o++++$oX$$$@$$$$o++++$o@$$$$o++++$oX$$$XX",
"XXo$o$oXXX++$X$@o$o$o$oXXX++$X$@o$o$o$oXXX++$Xo$o$oXXX++$X$@o$XX",
"XXoo++Xo++Xoo+oXX+oo++Xo++Xoo+oXX+oo++Xo++Xoo+oo++Xo++Xoo+oXX+XX",
"XXo++@oXoo+oo$@o@Xo++@oXoo+oo$@o@Xo++@oXoo+oo$o++@oXoo+oo$@o@XXX",
"XXX$@$$$oooo@@@oo+X$@$$$oooo@@@oo+X$@$$$oooo@@X$@$$$oooo@@@oo+XX",
"XXo@oo@@$@$oooo@ooo@oo@@$@$oooo@ooo@oo@@$@$oooo@oo@@$@$oooo@ooXX",
"XXXXXXXXXX@XXXXXXXXXXXXXXXXXXXXXXXXXXXXXXXXXXXXXXXXXXXXXXXXXXXXX",
"XXXXXXXXXXXXXXXXXXXXXXXXXXXXXXXXXXXXXXXXXXXXXXXXXXXXXXXXXXXXXXXX"
};
